<?xml version="1.0" encoding="utf-8" ?>
<svg xmlns="http://www.w3.org/2000/svg" xmlns:xlink="http://www.w3.org/1999/xlink" width="1024" height="1024">
	<path transform="scale(2 2)" d="M219.797 93.2437C226.107 92.6157 233.499 93.546 239.871 93.9705C273.699 96.2241 307.119 100.854 340.305 107.803L355.912 111.23C371.602 114.796 379.907 118.792 381.959 137.134C382.356 140.684 382.23 144.751 383.984 147.967C393.722 153.02 409.522 156.923 417.629 162.545C433.8 173.759 431.579 187.419 426.179 202.704L394.203 292.453C390.77 302.329 387.034 312.188 383.984 322.185C392.646 347.024 395.189 359.676 367.64 372.189C360.326 386.636 362.416 406.262 343.847 414.757C327.555 422.211 304.576 407.766 287.813 401.634L270.99 395.373C267.968 394.266 264.847 392.924 261.708 392.233C257.231 393.742 252.938 395.818 248.568 397.605L218.19 410.247C213.251 412.34 208.34 415.034 203.177 416.512C177.181 423.953 168.07 402.015 159.987 383.856L132.226 321.265L90.4301 220.88C83.7077 204.171 72.0118 182.638 92.4337 168.951C98.2547 165.05 105.404 162.35 111.78 159.446C135.619 148.59 166.049 135.682 191.539 128.64C195.329 112.234 197.3 94.4235 219.797 93.2437ZM277.548 128.64C264.411 130.124 262.411 141.779 258.546 152.285L248.773 179.41C235.63 216.055 222.795 252.786 210.588 289.751L198.696 326.975C195.21 338.216 187.397 353.974 203.649 360.399C207.9 362.08 212.587 363.077 216.979 364.387C243.505 372.299 270.07 380.62 295.773 390.92L317.424 399.789C322.885 402.024 327.771 404.715 333.813 404.483C350.423 401.713 352.57 378.222 357.208 363.64L366.417 335.243C373.417 313.93 380.925 292.762 388.284 271.57L406.035 221.496C408.917 213.577 418.893 191.562 417.597 183.628C415.943 173.502 405.551 170.568 397.355 167.27C383.941 161.871 289.379 125.214 277.548 128.64ZM189.448 142.998C172.782 145.285 128.231 165.96 112.642 173.179C91.7939 182.833 89.2729 184.713 98.7486 207.696L108.37 230.974C122.857 266.946 137.996 302.705 153.512 338.246L170.852 377.508C173.264 382.957 175.841 388.354 178.125 393.855C186.994 411.343 199.639 404.165 213.333 398.47L231.599 390.835C235.529 389.192 239.594 387.753 243.312 385.654C234.446 383.023 225.648 380.162 216.798 377.473C197.41 371.583 182.839 369.66 180.678 344.984C166.578 328.127 170.05 319.46 171.568 298.783C174.997 252.11 179.364 205.607 186.895 159.381C187.317 156.79 189.741 144.747 189.448 142.998ZM222.251 105.737C206.052 106.47 205.849 121.177 203.895 133.43L199.941 157.909C193.016 202.787 188.191 245.411 184.916 290.54L183.382 309.242C182.813 316.331 181.874 322.976 184.466 329.748C192.144 303.804 200.429 277.851 209.323 252.312L220.391 220.649C223.015 213.31 225.876 205.981 228.231 198.556L248.911 142.131C250.442 138.001 251.794 133.592 254.186 129.867C266.386 110.867 282.752 115.211 300.254 119.992C317.667 124.749 334.928 130.291 351.923 136.374C357.694 138.439 364.05 141.364 369.77 142.998C369.495 124.716 362.819 125.696 347.577 122.235C310.33 113.776 272.665 108.599 234.559 106.278C230.535 106.033 226.259 104.976 222.251 105.737ZM376.852 341.932C375.637 345.646 374.324 349.39 373.359 353.177C373.571 353.529 373.428 353.451 373.702 353.525C376.74 351.051 379.197 345.693 376.852 341.932Z"/>
	<path fill="#FECA04" transform="scale(2 2)" d="M225.568 116.013C230.428 115.713 252.825 116.844 254.023 118.482C256.581 121.98 248.325 122.189 246.783 122.414C225.484 125.52 225.344 125.695 217.412 146.32C216.158 149.615 211.507 165.46 209.01 166.693L208.582 166.491C207.81 164.123 212.317 130.836 212.945 128.179C214.548 121.392 218.358 117.032 225.568 116.013Z"/>
	<path fill="#FECA04" transform="scale(2 2)" d="M136.224 177.083C136.871 176.972 137.261 176.963 137.786 177.422C137.073 181.512 118.206 186.835 115.944 198.246C113.968 208.211 120.614 223.169 121.425 233.728C119.561 232.064 118.257 230.255 116.923 228.149C100.018 200.327 95.5299 183.274 136.224 177.083Z"/>
	<path transform="scale(2 2)" d="M222.251 317.748C225.433 317.565 240.497 319.18 232.764 324.519C229.305 324.566 213.482 322.531 222.251 317.748Z"/>
	<path transform="scale(2 2)" d="M243.312 321.177C247 321.728 262.079 323.244 255.674 329.748C252.116 329.912 234.438 327.199 243.312 321.177Z"/>
	<path transform="scale(2 2)" d="M312.323 344.984C315.7 344.548 331.473 351.55 324.681 355.95C321.145 356.283 305.649 349.933 312.323 344.984Z"/>
	<path transform="scale(2 2)" d="M289.801 335.189C293.164 335.294 309.521 340.346 302.483 345.746C298.934 345.898 281.893 340.315 289.801 335.189Z"/>
	<path transform="scale(2 2)" d="M265.478 327.226C267.807 327.191 286.223 330.907 279.925 336.912C276.784 337.672 257.855 333.386 265.478 327.226Z"/>
	<path fill="#FECA04" transform="scale(2 2)" d="M279.925 139.318C284.645 139.073 313.346 146.403 314.879 149.491L314.653 149.921C311.613 151.666 291.898 148.478 285.732 149.475C279.427 150.495 276.494 155.041 273.056 159.874C269.569 165.117 263.23 178.847 260.18 182.264L259.681 182.203L259.355 181.643C259.116 177.056 268.212 147.903 271.143 144.048C273.355 141.139 276.392 139.774 279.925 139.318Z"/>
	<path fill="#FECA04" transform="scale(2 2)" d="M347.194 358.64C349.781 359.764 343.761 391.061 330.469 393.708C322.196 395.356 300.721 386.563 292.365 381.183C289.933 379.545 287.199 377.969 285.462 375.556C300.435 374.672 315.266 383.498 324.706 382.842C335.678 382.079 340.643 365.631 347.194 358.64Z"/>
	<path fill="#FECA04" transform="scale(2 2)" d="M367.64 167.019C373.208 167.785 393.439 175.454 398.401 177.639C418.747 186.597 404.577 207.289 398.127 221.561C397.821 222.285 394.696 230.096 393.085 227.699C391.266 224.993 396.384 199.834 397.253 194.983C398.754 186.61 391.097 184.873 385.243 181.519C382.013 179.669 366.707 171.12 367.64 167.019Z"/>
	<path transform="scale(2 2)" d="M324.681 174.463C329.012 174.8 331.411 181.378 333.38 184.54C342.385 198.999 369.951 260.657 357.642 276.742C353.883 281.655 335.566 290.293 329.442 293.521L313.356 301.904C308.731 304.264 304.263 306.998 299.033 307.706C285.985 307.179 282.193 296.413 276.409 286.545C261.301 260.773 254.33 254.055 282.185 235.2C300.436 222.846 322.34 208.386 322.432 183.434C322.446 179.833 320.619 176.167 324.681 174.463ZM328.456 187.888C320.05 232.247 273.02 239.855 269.628 256.229C268.294 262.669 278.896 278.054 282.012 283.66C285.584 290.087 288.457 298.67 296.007 301.352C301.978 302.491 319.327 291.705 325.226 288.583L340.538 280.526C355.883 272.421 356.368 271.371 352.763 252.499C349.671 236.308 338.874 201.172 328.456 187.888Z"/>
	<path fill="#FECA04" transform="scale(2 2)" d="M330.71 209.371C335.283 211.39 349.705 262.867 345.851 268.714C342.022 274.522 303.354 294.65 296.007 296.423C288.325 298.061 279.963 273.161 279.89 268.768C279.687 256.622 312.207 238.129 321.641 224.384C324.555 220.138 327.704 212.476 330.71 209.371Z"/>
</svg>
